<?xml version="1.0" encoding="UTF-8"?>
<svg width="78px" height="26px" viewBox="0 0 78 26" version="1.1" xmlns="http://www.w3.org/2000/svg" xmlns:xlink="http://www.w3.org/1999/xlink">
    <!-- Generator: Sketch 59.1 (86144) - https://sketch.com -->
    <title>logo</title>
    <desc>Created with Sketch.</desc>
    <g id="logo" stroke="none" stroke-width="1" fill="none" fill-rule="evenodd">
        <g id="kenday." transform="translate(0.236000, 1.592000)" fill-rule="nonzero">
            <path d="M7.10542736e-15,18.408 L2.704,18.408 L2.704,12.142 L7.774,18.408 L11.206,18.408 L5.382,11.336 L10.868,5.304 L7.436,5.304 L2.704,10.53 L2.704,-7.10542736e-15 L7.10542736e-15,-7.10542736e-15 L7.10542736e-15,18.408 Z M16.238,7.488 C18.084,7.488 19.176,8.71 19.41,10.348 L13.04,10.348 C13.352,8.658 14.496,7.488 16.238,7.488 Z M22.27,11.44 C22.27,8.502 20.424,5.096 16.238,5.096 C11.922,5.096 10.128,8.736 10.128,11.856 C10.128,14.976 11.922,18.616 16.238,18.616 C19.124,18.616 20.658,17.498 21.984,14.924 L19.67,14.014 C19.02,15.392 17.694,16.224 16.238,16.224 C14.184,16.224 12.988,14.664 12.988,12.61 L22.27,12.61 L22.27,11.44 Z M23.506,18.408 L26.21,18.408 L26.21,13.104 C26.21,11.388 26.548,10.036 27.198,9.022 C27.874,8.008 28.654,7.488 29.564,7.488 C30.916,7.488 31.592,8.294 31.592,9.88 L31.592,18.408 L34.296,18.408 L34.296,9.022 C34.296,6.526 32.762,5.096 30.448,5.096 C28.706,5.096 27.146,5.98 26.21,7.54 L26.21,5.304 L23.506,5.304 L23.506,18.408 Z M35.402,11.856 C35.402,16.12 37.43,18.616 41.252,18.616 C42.838,18.616 44.32,17.758 44.814,16.9 L44.814,18.408 L47.518,18.408 L47.518,-7.10542736e-15 L44.814,-7.10542736e-15 L44.814,6.76 C44.502,6.318 44.008,5.954 43.306,5.616 C42.604,5.278 41.954,5.096 41.304,5.096 C37.456,5.096 35.402,7.696 35.402,11.856 Z M39.198,8.684 C39.822,7.878 40.628,7.488 41.616,7.488 C42.604,7.488 43.41,7.878 44.034,8.684 C44.658,9.464 44.97,10.53 44.97,11.856 C44.97,13.182 44.658,14.248 44.034,15.054 C43.41,15.834 42.604,16.224 41.616,16.224 C40.628,16.224 39.822,15.834 39.198,15.054 C38.574,14.248 38.262,13.182 38.262,11.856 C38.262,10.53 38.574,9.464 39.198,8.684 Z M48.806,14.638 C48.806,17.238 50.522,18.616 52.836,18.616 C54.63,18.616 55.982,17.966 56.892,16.692 L57.152,18.408 L59.44,18.408 L59.44,10.27 C59.44,6.812 57.698,5.096 54.214,5.096 C51.718,5.096 49.82,6.5 49.274,8.71 L51.744,9.23 C52.186,8.06 52.992,7.488 54.188,7.488 C55.67,7.488 56.736,8.216 56.736,9.776 L56.736,10.348 L54.474,10.348 C51.068,10.348 48.806,11.96 48.806,14.638 Z M51.666,14.638 C51.666,13.39 52.706,12.61 54.37,12.61 L56.736,12.61 L56.736,12.896 C56.736,13.962 56.398,14.768 55.696,15.366 C55.02,15.938 54.214,16.224 53.304,16.224 C52.238,16.224 51.666,15.574 51.666,14.638 Z M64.004,17.758 L59.402,5.304 L62.262,5.304 L65.356,14.118 L68.346,5.304 L71.206,5.304 L64.576,23.712 L61.872,23.712 L64.004,17.758 Z" id="kenday" fill="#212529"></path>
            <path d="M70.414,15.262 C71.168,14.508 72.416,14.508 73.144,15.262 C73.898,15.99 73.898,17.238 73.144,17.992 C72.416,18.72 71.168,18.72 70.414,17.992 C69.686,17.238 69.686,15.99 70.414,15.262 Z" id="." fill="#105540"></path>
        </g>
    </g>
</svg>